<?xml version="1.0" encoding="UTF-8"?>
<svg width="358px" height="80px" viewBox="0 0 358 80" version="1.1" xmlns="http://www.w3.org/2000/svg" xmlns:xlink="http://www.w3.org/1999/xlink">
    <!-- Generator: Sketch 49.3 (51167) - http://www.bohemiancoding.com/sketch -->
    <title>Artboard</title>
    <desc>Created with Sketch.</desc>
    <defs>
        <path d="M30.7780216,0.0277227723 L30.8704932,0.0277227723 L61.6485149,18.4820792 L61.6485149,55.4455446 L41.6125743,55.4455446 L18.4945545,69.3069307 L18.4945545,55.4455446 L0,55.4455446 L0,18.4820792 L30.7780216,0.0277227723 Z M92.9045545,39.7974257 L92.9045545,56.3694059 L84.7665347,56.3694059 L84.7665347,13.3686139 L104.186337,13.3686139 C112.015248,13.3686139 116.886139,18.5437624 116.886139,26.6755446 C116.886139,32.589505 114.173465,37.0868317 108.871485,38.8735644 L117.687327,56.3694059 L108.624752,56.3694059 L100.610792,39.7974257 L92.9045545,39.7974257 Z M92.9045545,32.959604 L103.384455,32.959604 C106.528911,32.959604 108.439703,31.2345545 108.439703,28.0921782 L108.439703,25.2582178 C108.439703,22.1165347 106.528911,20.4531683 103.384455,20.4531683 L92.9045545,20.4531683 L92.9045545,32.959604 Z M134.209406,57.1089109 C124.71505,57.1089109 119.043663,50.5171287 119.043663,40.2285149 C119.043663,30.0639604 124.53,23.4721782 133.962673,23.4721782 C144.011485,23.4721782 148.63495,30.8644554 148.63495,39.6740594 L148.63495,42.2619802 L127.242673,42.2619802 L127.242673,43.0624752 C127.242673,47.6831683 129.893663,50.8248515 135.072277,50.8248515 C138.956238,50.8248515 141.298812,48.9771287 143.271287,46.4508911 L147.525347,51.1949505 C144.874356,54.8294059 140.189208,57.1089109 134.209406,57.1089109 Z M134.08604,29.3861386 C129.955347,29.3861386 127.242673,32.4661386 127.242673,36.9017822 L127.242673,37.3952475 L140.435248,37.3952475 L140.435248,36.8407921 C140.435248,32.4051485 138.154356,29.3861386 134.08604,29.3861386 Z M162.012574,57.1089109 C155.477624,57.1089109 151.778713,53.3510891 151.778713,47.6214851 C151.778713,41.029703 156.772277,37.7646535 165.526436,37.7646535 L171.013465,37.7646535 L171.013465,35.4234653 C171.013465,31.8506931 169.225347,29.7555446 165.033663,29.7555446 C161.334752,29.7555446 159.238218,31.6039604 157.697525,33.8217822 L153.011683,29.6328713 C155.354257,25.9360396 159.114851,23.4721782 165.588119,23.4721782 C174.280594,23.4721782 178.904059,27.5994059 178.904059,34.9306931 L178.904059,50.0860396 L182.110198,50.0860396 L182.110198,56.3694059 L177.732772,56.3694059 C174.342277,56.3694059 172.246436,54.1515842 171.75297,50.8248515 L171.383564,50.8248515 C170.33495,54.9527723 166.821089,57.1089109 162.012574,57.1089109 Z M164.663564,51.3793069 C168.177426,51.3793069 171.013465,49.7776238 171.013465,46.7593069 L171.013465,42.5080198 L165.958218,42.5080198 C161.827525,42.5080198 159.793366,43.9253465 159.793366,46.4508911 L159.793366,47.4981188 C159.793366,50.0860396 161.580792,51.3793069 164.663564,51.3793069 Z M199.12505,56.3694059 L194.87099,56.3694059 C189.50802,56.3694059 186.980396,53.5354455 186.980396,48.6070297 L186.980396,10.7813861 L194.87099,10.7813861 L194.87099,50.0860396 L199.12505,50.0860396 L199.12505,56.3694059 Z M217.434554,57.1089109 C210.098416,57.1089109 205.043168,54.2132673 201.405941,49.9626733 L206.89297,44.6641584 C209.851683,48.1142574 213.488911,49.9626733 217.92802,49.9626733 C222.921584,49.9626733 225.510891,47.559802 225.510891,43.9253465 C225.510891,41.029703 224.154554,39.2429703 219.654455,38.4424752 L215.585446,37.8263366 C206.89297,36.4706931 202.700594,32.3434653 202.700594,25.319901 C202.700594,17.6192079 208.680396,12.6291089 218.298119,12.6291089 C224.770693,12.6291089 229.579208,14.8469307 233.032079,18.9748515 L227.483366,24.2109901 C225.387525,21.5620792 222.428119,19.7753465 217.866337,19.7753465 C213.242871,19.7753465 210.838614,21.6237624 210.838614,24.8271287 C210.838614,28.0921782 212.687723,29.4478218 216.818416,30.1873267 L220.825743,30.9261386 C229.517525,32.4661386 233.586535,36.3473267 233.586535,43.4325743 C233.586535,51.5643564 227.730099,57.1089109 217.434554,57.1089109 Z M246.101287,57.1089109 C239.566337,57.1089109 235.867426,53.3510891 235.867426,47.6214851 C235.867426,41.029703 240.86099,37.7646535 249.615149,37.7646535 L255.102178,37.7646535 L255.102178,35.4234653 C255.102178,31.8506931 253.314059,29.7555446 249.122376,29.7555446 C245.423465,29.7555446 243.326931,31.6039604 241.786238,33.8217822 L237.100396,29.6328713 C239.44297,25.9360396 243.203564,23.4721782 249.676832,23.4721782 C258.369307,23.4721782 262.992772,27.5994059 262.992772,34.9306931 L262.992772,50.0860396 L266.198911,50.0860396 L266.198911,56.3694059 L261.821485,56.3694059 C258.43099,56.3694059 256.335149,54.1515842 255.841683,50.8248515 L255.472277,50.8248515 C254.423663,54.9527723 250.909802,57.1089109 246.101287,57.1089109 Z M326.64703,24.6663366 L316.011188,56.3694059 L306.640198,56.3694059 L295.975248,24.3953465 L285.247921,56.3694059 L275.877624,56.3694059 L265.15099,24.2109901 L272.918218,24.2109901 L277.41901,38.0723762 L280.562772,49.5315842 L280.994554,49.5315842 L284.138317,38.0723762 L288.515743,24.2109901 L303.681485,24.2109901 L308.181584,38.0723762 L311.325347,49.5315842 L311.757129,49.5315842 L314.901584,38.0723762 L319.278317,24.2109901 L334.320693,24.2109901 L339.930396,41.2147525 L342.026931,49.3465347 L342.396337,49.3465347 L344.616238,41.2147525 L350.225941,24.2109901 L357.623762,24.2109901 L344.677228,62.0990099 C343.074851,66.719703 340.79396,68.6907921 335.49198,68.6907921 L330.745149,68.6907921 L330.745149,62.4067327 L336.539901,62.4067327 L338.019604,57.910099 L326.64703,24.6663366 Z M248.752277,51.3793069 C252.266139,51.3793069 255.102178,49.7776238 255.102178,46.7593069 L255.102178,42.5080198 L250.046931,42.5080198 C245.916238,42.5080198 243.882079,43.9253465 243.882079,46.4508911 L243.882079,47.4981188 C243.882079,50.0860396 245.669505,51.3793069 248.752277,51.3793069 Z M39.9055446,49.2848515 L55.4836634,49.2848515 L55.4836634,21.969604 L30.8242574,7.18435644 L6.16485149,21.969604 L6.16485149,49.2848515 L24.6594059,49.2848515 L24.6594059,58.4264356 L39.9055446,49.2848515 Z M15.8463366,32.3788119 L21.1427723,29.2274257 C23.6690099,33.4669307 26.8023762,35.4234653 30.8242574,35.4234653 C34.8461386,35.4234653 37.979505,33.4669307 40.5057426,29.2274257 L45.8021782,32.3788119 C42.2106931,38.4071287 37.1235644,41.5841584 30.8242574,41.5841584 C24.5249505,41.5841584 19.4378218,38.4071287 15.8463366,32.3788119 Z" id="path-1"></path>
    </defs>
    <g id="Artboard" stroke="none" stroke-width="1" fill="none" fill-rule="evenodd">
        <g id="realsavvy_logo_left_L_savvyblack" transform="translate(0.000000, 5.000000)">
            <mask id="mask-2" fill="white">
                <use xlink:href="#path-1"></use>
            </mask>
            <g id="Clip-2"></g>
            <polygon id="Fill-1" fill="#1E2123" mask="url(#mask-2)" points="0 69.3069307 357.623762 69.3069307 357.623762 0.0277227723 0 0.0277227723"></polygon>
        </g>
    </g>
</svg>