<?xml version="1.0" encoding="UTF-8"?>
<svg width="205px" height="40px" viewBox="0 0 205 40" version="1.1" xmlns="http://www.w3.org/2000/svg" xmlns:xlink="http://www.w3.org/1999/xlink">
    <!-- Generator: Sketch 49.3 (51167) - http://www.bohemiancoding.com/sketch -->
    <title>Artboard</title>
    <desc>Created with Sketch.</desc>
    <defs>
        <path d="M17.5874409,0.0158415842 L17.6402818,0.0158415842 L35.2277228,10.5611881 L35.2277228,31.6831683 L23.7786139,31.6831683 L10.5683168,39.6039604 L10.5683168,31.6831683 L0,31.6831683 L0,10.5611881 L17.5874409,0.0158415842 Z M53.0883168,22.7413861 L53.0883168,32.2110891 L48.4380198,32.2110891 L48.4380198,7.63920792 L59.5350495,7.63920792 C64.0087129,7.63920792 66.7920792,10.5964356 66.7920792,15.2431683 C66.7920792,18.6225743 65.2419802,21.1924752 62.2122772,22.2134653 L67.249901,32.2110891 L62.0712871,32.2110891 L57.4918812,22.7413861 L53.0883168,22.7413861 Z M53.0883168,18.8340594 L59.0768317,18.8340594 C60.8736634,18.8340594 61.9655446,17.8483168 61.9655446,16.0526733 L61.9655446,14.4332673 C61.9655446,12.6380198 60.8736634,11.6875248 59.0768317,11.6875248 L53.0883168,11.6875248 L53.0883168,18.8340594 Z M76.6910891,32.6336634 C71.2657426,32.6336634 68.0249505,28.8669307 68.0249505,22.9877228 C68.0249505,17.1794059 71.16,13.4126733 76.550099,13.4126733 C82.2922772,13.4126733 84.9342574,17.6368317 84.9342574,22.6708911 L84.9342574,24.149703 L72.710099,24.149703 L72.710099,24.6071287 C72.710099,27.2475248 74.2249505,29.0427723 77.1841584,29.0427723 C79.4035644,29.0427723 80.7421782,27.9869307 81.8693069,26.5433663 L84.300198,29.2542574 C82.7853465,31.3310891 80.1081188,32.6336634 76.6910891,32.6336634 Z M76.6205941,16.7920792 C74.260198,16.7920792 72.710099,18.5520792 72.710099,21.0867327 L72.710099,21.3687129 L80.2487129,21.3687129 L80.2487129,21.0518812 C80.2487129,18.5172277 78.9453465,16.7920792 76.6205941,16.7920792 Z M92.5786139,32.6336634 C88.8443564,32.6336634 86.7306931,30.4863366 86.7306931,27.2122772 C86.7306931,23.4455446 89.5841584,21.579802 94.5865347,21.579802 L97.7219802,21.579802 L97.7219802,20.2419802 C97.7219802,18.200396 96.700198,17.0031683 94.3049505,17.0031683 C92.1912871,17.0031683 90.9932673,18.0594059 90.1128713,19.3267327 L87.4352475,16.9330693 C88.7738614,14.8205941 90.9227723,13.4126733 94.6217822,13.4126733 C99.5889109,13.4126733 102.230891,15.7710891 102.230891,19.960396 L102.230891,28.6205941 L104.06297,28.6205941 L104.06297,32.2110891 L101.561584,32.2110891 C99.6241584,32.2110891 98.4265347,30.9437624 98.1445545,29.0427723 L97.9334653,29.0427723 C97.3342574,31.4015842 95.3263366,32.6336634 92.5786139,32.6336634 Z M94.0934653,29.359604 C96.1013861,29.359604 97.7219802,28.4443564 97.7219802,26.719604 L97.7219802,24.290297 L94.8332673,24.290297 C92.4728713,24.290297 91.310495,25.100198 91.310495,26.5433663 L91.310495,27.1417822 C91.310495,28.6205941 92.3318812,29.359604 94.0934653,29.359604 Z M113.785743,32.2110891 L111.354851,32.2110891 C108.290297,32.2110891 106.845941,30.5916832 106.845941,27.7754455 L106.845941,6.16079208 L111.354851,6.16079208 L111.354851,28.6205941 L113.785743,28.6205941 L113.785743,32.2110891 Z M124.248317,32.6336634 C120.056238,32.6336634 117.167525,30.9790099 115.089109,28.550099 L118.224554,25.5223762 C119.915248,27.4938614 121.993663,28.550099 124.530297,28.550099 C127.383762,28.550099 128.863366,27.1770297 128.863366,25.100198 C128.863366,23.4455446 128.088317,22.4245545 125.516832,21.9671287 L123.191683,21.6150495 C118.224554,20.840396 115.828911,18.4819802 115.828911,14.4685149 C115.828911,10.0681188 119.245941,7.21663366 124.741782,7.21663366 C128.440396,7.21663366 131.188119,8.4839604 133.161188,10.8427723 L129.990495,13.8348515 C128.792871,12.3211881 127.101782,11.300198 124.49505,11.300198 C121.853069,11.300198 120.479208,12.3564356 120.479208,14.1869307 C120.479208,16.0526733 121.535842,16.8273267 123.896238,17.249901 L126.186139,17.6720792 C131.152871,18.5520792 133.47802,20.769901 133.47802,24.8186139 C133.47802,29.4653465 130.131485,32.6336634 124.248317,32.6336634 Z M140.629307,32.6336634 C136.89505,32.6336634 134.781386,30.4863366 134.781386,27.2122772 C134.781386,23.4455446 137.634851,21.579802 142.637228,21.579802 L145.772673,21.579802 L145.772673,20.2419802 C145.772673,18.200396 144.750891,17.0031683 142.355644,17.0031683 C140.24198,17.0031683 139.04396,18.0594059 138.163564,19.3267327 L135.485941,16.9330693 C136.824554,14.8205941 138.973465,13.4126733 142.672475,13.4126733 C147.639604,13.4126733 150.281584,15.7710891 150.281584,19.960396 L150.281584,28.6205941 L152.113663,28.6205941 L152.113663,32.2110891 L149.612277,32.2110891 C147.674851,32.2110891 146.477228,30.9437624 146.195248,29.0427723 L145.984158,29.0427723 C145.38495,31.4015842 143.37703,32.6336634 140.629307,32.6336634 Z M186.655446,14.0950495 L180.577822,32.2110891 L175.22297,32.2110891 L169.128713,13.940198 L162.998812,32.2110891 L157.644356,32.2110891 L151.514851,13.8348515 L155.953267,13.8348515 L158.525149,21.7556436 L160.321584,28.3037624 L160.568317,28.3037624 L162.364752,21.7556436 L164.866139,13.8348515 L173.532277,13.8348515 L176.103762,21.7556436 L177.900198,28.3037624 L178.146931,28.3037624 L179.943762,21.7556436 L182.444752,13.8348515 L191.040396,13.8348515 L194.245941,23.5512871 L195.44396,28.1980198 L195.65505,28.1980198 L196.923564,23.5512871 L200.129109,13.8348515 L204.356436,13.8348515 L196.958416,35.4851485 C196.042772,38.1255446 194.739406,39.2518812 191.709703,39.2518812 L188.997228,39.2518812 L188.997228,35.6609901 L192.308515,35.6609901 L193.154059,33.0914851 L186.655446,14.0950495 Z M142.144158,29.359604 C144.152079,29.359604 145.772673,28.4443564 145.772673,26.719604 L145.772673,24.290297 L142.88396,24.290297 C140.523564,24.290297 139.361188,25.100198 139.361188,26.5433663 L139.361188,27.1417822 C139.361188,28.6205941 140.382574,29.359604 142.144158,29.359604 Z M22.8031683,28.1627723 L31.7049505,28.1627723 L31.7049505,12.5540594 L17.6138614,4.10534653 L3.52277228,12.5540594 L3.52277228,28.1627723 L14.0910891,28.1627723 L14.0910891,33.3865347 L22.8031683,28.1627723 Z M9.0550495,18.5021782 L12.0815842,16.7013861 C13.5251485,19.1239604 15.3156436,20.2419802 17.6138614,20.2419802 C19.9120792,20.2419802 21.7025743,19.1239604 23.1461386,16.7013861 L26.1726733,18.5021782 C24.120396,21.9469307 21.2134653,23.7623762 17.6138614,23.7623762 C14.0142574,23.7623762 11.1073267,21.9469307 9.0550495,18.5021782 Z" id="path-1"></path>
    </defs>
    <g id="Artboard" stroke="none" stroke-width="1" fill="none" fill-rule="evenodd">
        <g id="realsavvy_logo_left_L_savvyblack">
            <mask id="mask-2" fill="white">
                <use xlink:href="#path-1"></use>
            </mask>
            <g id="Clip-2"></g>
            <polygon id="Fill-1" fill="#1E2123" mask="url(#mask-2)" points="0 39.6039604 204.356436 39.6039604 204.356436 0.0158415842 0 0.0158415842"></polygon>
        </g>
    </g>
</svg>